<?xml version="1.0" encoding="UTF-8"?>
<svg version="1.1" xmlns="http://www.w3.org/2000/svg" width="2500" height="3000">
<path d="M0 0 C0.70922104 0.08897049 1.41844208 0.17794098 2.14915466 0.26960754 C4.4783416 0.56639401 6.80564141 0.87531671 9.1328125 1.1875 C9.94761078 1.29565033 10.76240906 1.40380066 11.60189819 1.51522827 C43.84444285 5.83291609 75.81510323 11.82858174 107.2578125 20.1875 C108.46244141 20.50686523 109.66707031 20.82623047 110.90820312 21.15527344 C168.65505866 36.65408889 224.99853317 60.63810056 271.2578125 99.1875 C272.21171875 99.96867188 273.165625 100.74984375 274.1484375 101.5546875 C287.00092336 112.1709092 299.43106686 123.49407407 310.2578125 136.1875 C311.17175071 137.21741335 312.08721935 138.24596988 313.00390625 139.2734375 C321.10640527 148.43330663 328.27382868 158.15723808 335.2578125 168.1875 C335.70366699 168.82268555 336.14952148 169.45787109 336.60888672 170.11230469 C344.24184286 181.03497395 350.79947984 192.54169706 357.2578125 204.1875 C357.86689453 205.27369629 357.86689453 205.27369629 358.48828125 206.38183594 C369.83194704 226.67848027 378.47773183 248.3142338 386.2578125 270.1875 C386.58845703 271.10692383 386.91910156 272.02634766 387.25976562 272.97363281 C398.02114711 303.12903479 405.56764969 334.42283897 411.77807617 365.79980469 C412.25860548 368.19144672 412.75856019 370.57828231 413.26367188 372.96484375 C417.64725188 393.83673284 419.73968276 414.20693318 419.92944336 435.53149414 C419.96156076 438.04414067 419.99443178 440.55677767 420.02797604 443.06940556 C420.13183834 451.4419342 420.19994906 459.81453994 420.2578125 468.1875 C420.26293392 468.91959739 420.26805533 469.65169479 420.27333194 470.40597695 C420.43489718 493.77793785 420.50298297 517.15011038 420.55483391 540.52253299 C420.57646433 550.21413749 420.60305428 559.90572715 420.62953445 569.59731938 C420.69232758 592.68469489 420.74613286 615.7720883 420.79816582 638.85949018 C420.81532532 646.46170817 420.83290798 654.0639251 420.85075378 661.66614151 C420.8545507 663.28362356 420.8545507 663.28362356 420.85842431 664.93378201 C420.86222541 666.55286939 420.86222541 666.55286939 420.86610329 668.2046656 C420.99707553 723.99714498 421.11253427 779.78964666 421.21690841 835.58218183 C421.24307306 849.56485457 421.27032627 863.54752456 421.29885956 877.53019267 C421.37733472 916.01265601 421.44723851 954.49509174 421.48081684 992.97762394 C421.48352807 996.0615902 421.48625335 999.14555646 421.48898315 1002.22952271 C421.48964261 1002.98554312 421.49030207 1003.74156353 421.49098151 1004.52049365 C421.50097419 1015.77026131 421.51898146 1027.01999591 421.54153442 1038.26974487 C421.5668717 1050.91644303 421.58146616 1063.56310092 421.58165115 1076.20982563 C421.58212776 1082.53216552 421.58689732 1088.85440464 421.60541344 1095.17671967 C421.84496643 1181.10466627 409.85247009 1264.08249037 354.2578125 1416.1875 C353.53706543 1417.75081055 353.53706543 1417.75081055 352.80175781 1419.34570312 C340.28743332 1446.30615033 325.93107316 1471.97365033 310.2578125 1497.1875 C309.16227134 1498.96975154 308.06717939 1500.75227934 306.97265625 1502.53515625 C300.72355936 1512.64758865 294.01309296 1522.34088467 286.94628906 1531.89746094 C285.2126971 1534.24868891 283.49561863 1536.61128898 281.78125 1538.9765625 C274.69712513 1548.7195687 267.36048167 1558.19099386 259.67724609 1567.46826172 C257.68561221 1569.88055718 255.72462831 1572.31745367 253.7578125 1574.75 C239.08545961 1592.62359352 223.26398346 1609.3621117 206.89379883 1625.68188477 C204.79324146 1627.77700092 202.69819376 1629.8775231 200.60351562 1631.97851562 C199.23990439 1633.34146713 197.87598357 1634.70410897 196.51171875 1636.06640625 C195.90010391 1636.68004532 195.28848907 1637.29368439 194.65834045 1637.92591858 C190.89930481 1641.66492685 187.01926905 1645.21478803 183.00494385 1648.67848206 C180.78095553 1650.59936699 178.61417008 1652.57976155 176.4453125 1654.5625 C171.19644024 1659.29365345 165.75219174 1663.74626785 160.2578125 1668.1875 C159.02661163 1669.19832767 157.79618632 1670.21010049 156.56640625 1671.22265625 C117.93691207 1702.95830093 75.65865434 1729.9593204 31.16845703 1752.69628906 C28.31555598 1754.15791627 25.47218982 1755.63695954 22.62890625 1757.1171875 C-52.60701171 1795.91181586 -137.48348112 1818.55524872 -289.41029358 1829.50555801 C-291.59811476 1829.49988744 -293.7859281 1829.49708568 -295.97375488 1829.49447632 C-319.66451102 1829.45349158 -343.174697 1828.74970732 -366.7421875 1826.1875 C-367.53792175 1826.10264343 -368.33365601 1826.01778687 -369.15350342 1825.93035889 C-445.81795157 1817.70942578 -520.4293466 1797.60800526 -670.7421875 1725.1875 C-672.7173487 1724.01155208 -674.69260987 1722.83577207 -676.66796875 1721.66015625 C-689.01064483 1714.27268811 -700.9864409 1706.47483376 -712.7421875 1698.1875 C-713.37415039 1697.7445459 -714.00611328 1697.3015918 -714.65722656 1696.84521484 C-732.57589291 1684.27316942 -750.03186347 1671.02138325 -766.66796875 1656.79296875 C-769.43917905 1654.42885813 -772.27145939 1652.14906042 -775.1171875 1649.875 C-780.95910583 1645.1247102 -786.40585733 1639.98492915 -791.87109375 1634.8125 C-794.65111838 1632.18488502 -797.48796569 1629.63378508 -800.3515625 1627.09765625 C-806.32282271 1621.74105955 -811.98732237 1616.09302713 -817.64770508 1610.41235352 C-819.4339342 1608.6207405 -821.22548097 1606.83456945 -823.01757812 1605.04882812 C-828.28232633 1599.78713732 -833.48659144 1594.52796363 -838.31665039 1588.8581543 C-840.50705678 1586.29111355 -842.81718262 1583.84422446 -845.1171875 1581.375 C-849.40649453 1576.73192811 -853.46897369 1571.95308383 -857.43359375 1567.02734375 C-859.51309403 1564.4693121 -861.63271032 1561.95607206 -863.77661133 1559.45239258 C-869.68165601 1552.55067253 -875.29998065 1545.4595284 -880.7421875 1538.1875 C-881.26151855 1537.49414551 -881.78084961 1536.80079102 -882.31591797 1536.08642578 C-934.13176942 1466.72126406 -973.84421114 1389.91608465 -1027.37815976 1098.76074862 C-1027.40078413 1094.21681122 -1027.43381373 1089.67296917 -1027.46665686 1085.12909585 C-1027.57206051 1070.52025902 -1027.64715802 1055.91133707 -1027.71390625 1041.30227975 C-1027.7358537 1036.50946478 -1027.75902095 1031.71665685 -1027.78287506 1026.92385101 C-1028.00111105 983.01676722 -1028.15453176 939.10955549 -1028.28254019 895.20212395 C-1028.29984479 889.26736022 -1028.31742015 883.33259732 -1028.33512878 877.39783478 C-1028.48451142 827.26834187 -1028.61309531 777.13881297 -1028.7247087 727.00922208 C-1028.73819289 720.95730676 -1028.75191579 714.90539202 -1028.76573944 708.85347748 C-1028.85480307 669.78427427 -1028.9305062 630.71509779 -1028.96519184 591.64580441 C-1028.96723123 589.36338377 -1028.96927335 587.08096314 -1028.97132231 584.79854252 C-1028.97267751 583.28750821 -1028.97402227 581.77647388 -1028.97535651 580.26543955 C-1028.98537536 569.1139439 -1029.00340126 557.96248154 -1029.02590942 546.81100464 C-1029.0513075 534.2116218 -1029.06584165 521.61227936 -1029.06602615 509.01286978 C-1029.06650614 502.644509 -1029.07143772 496.27624783 -1029.08978844 489.9079113 C-1029.2534738 430.16611437 -1023.25908084 372.25065525 -1004.7421875 315.1875 C-1004.39575195 314.11387207 -1004.04931641 313.04024414 -1003.69238281 311.93408203 C-998.26822983 295.29686988 -991.85101909 279.17305239 -984.7421875 263.1875 C-984.36094727 262.32576172 -983.97970703 261.46402344 -983.58691406 260.57617188 C-977.50974893 246.95851704 -970.23624912 234.06791841 -962.7421875 221.1875 C-962.3296875 220.47078125 -961.9171875 219.7540625 -961.4921875 219.015625 C-942.20862726 185.53722181 -917.30120134 155.79335596 -890.1796875 128.4375 C-889.31746582 127.56222656 -888.45524414 126.68695312 -887.56689453 125.78515625 C-882.41270818 120.62413799 -877.0809158 115.8889058 -871.38525391 111.33398438 C-868.90034072 109.31593923 -866.51653744 107.22686527 -864.14453125 105.078125 C-859.71651406 101.10323011 -855.07708877 97.48780528 -850.3046875 93.9375 C-849.43779297 93.29127686 -848.57089844 92.64505371 -847.67773438 91.97924805 C-776.8506139 39.60045165 -692.79891652 11.35498496 -605.7421875 2.1875 C-604.67403809 2.06890625 -603.60588867 1.9503125 -602.50537109 1.828125 C-563.27638489 -2.37297121 -522.7776748 -1.24439691 -483.7421875 4.1875 C-482.26760274 4.38755129 -480.79299334 4.58742105 -479.31835938 4.78710938 C-475.0592434 5.36996133 -470.80593627 5.98744504 -466.5546875 6.625 C-465.34498291 6.80571045 -464.13527832 6.9864209 -462.88891602 7.17260742 C-444.28023957 10.16635997 -427.42972138 15.51976239 -410.1796875 23.0625 C-406.55639794 24.62945047 -402.92954964 26.18797041 -399.30078125 27.7421875 C-398.42008972 28.12003891 -397.53939819 28.49789032 -396.63201904 28.88719177 C-369.83827072 40.28873093 -342.0555515 48.36829299 -312.7421875 49.1875 C-311.54722656 49.22746094 -310.35226562 49.26742187 -309.12109375 49.30859375 C-269.25938403 49.9910198 -233.88043176 37.90560827 -197.6628418 22.62231445 C-174.52255828 12.91352259 -151.88793084 7.76430657 -126.86328125 5.73828125 C-126.10144154 5.67549673 -125.33960182 5.61271221 -124.55467606 5.54802513 C-104.25839664 3.88527224 -83.92869918 2.77337934 -63.59613037 1.66369629 C-59.5674449 1.44231545 -55.53909799 1.21507599 -51.51074028 0.98782063 C-47.58507275 0.76686217 -43.65925075 0.54876003 -39.73337173 0.33159447 C-37.88273372 0.22903206 -36.03213376 0.12578019 -34.18157578 0.02178383 C-10.40088531 -1.30925817 -10.40088531 -1.30925817 0 0 Z M-248.37425232 240.57702637 C-260.56274249 246.79460779 -272.46255832 252.68484552 -285.7421875 256.1875 C-286.91265625 256.52136719 -288.083125 256.85523438 -289.2890625 257.19921875 C-305.21112454 261.10896954 -324.06989912 261.14734224 -339.7421875 256.1875 C-340.70511719 255.89359375 -341.66804688 255.5996875 -342.66015625 255.296875 C-349.91344432 252.78215158 -356.49204042 249.241582 -363.2421875 245.625 C-393.96218218 229.22500949 -427.29467324 218.0260339 -461.5546875 211.9375 C-462.39950684 211.78643799 -463.24432617 211.63537598 -464.11474609 211.47973633 C-480.30756803 208.76767575 -496.40474938 207.80666236 -512.8046875 207.875 C-513.74306458 207.87715515 -514.68144165 207.8793103 -515.64825439 207.88153076 C-530.86380112 207.9373623 -545.72031514 208.56937536 -560.7421875 211.1875 C-561.88719727 211.38617676 -563.03220703 211.58485352 -564.21191406 211.78955078 C-590.55901104 216.51842608 -615.31662541 224.295902 -639.7421875 235.1875 C-640.5779834 235.55456055 -641.4137793 235.92162109 -642.27490234 236.29980469 C-685.10750776 255.21919758 -727.26783323 286.68595008 -755.7421875 324.1875 C-756.66889226 325.3739937 -757.59600405 326.56016956 -758.5234375 327.74609375 C-777.37301184 352.09371685 -791.95752434 378.98330308 -801.7421875 408.1875 C-802.00467285 408.96528809 -802.2671582 409.74307617 -802.53759766 410.54443359 C-805.2731583 418.80276468 -807.26276279 427.15200462 -808.9296875 435.6875 C-809.08477783 436.48115967 -809.23986816 437.27481934 -809.3996582 438.0925293 C-812.57480117 455.37672715 -813.0393989 472.26541351 -813.03411865 489.79344177 C-813.04056212 492.47738277 -813.04778471 495.16131157 -813.05594754 497.84524685 C-813.07205932 503.65768493 -813.08092574 509.47009799 -813.08489037 515.28255653 C-813.09080693 523.92711874 -813.10808516 532.57163301 -813.12751075 541.21617408 C-813.16184379 556.66447581 -813.18491887 572.11277881 -813.2031376 587.56110704 C-813.21911631 601.09119664 -813.23875427 614.62127475 -813.26200104 628.15135384 C-813.26354015 629.05053547 -813.26507927 629.9497171 -813.26666503 630.87614666 C-813.27291577 634.52684879 -813.27917956 638.1775509 -813.2854654 641.82825297 C-813.34432963 676.0601333 -813.39163133 710.29202115 -813.43378362 744.52392567 C-813.47122536 774.87087052 -813.51906476 805.21778226 -813.57568359 835.56469727 C-813.63935515 869.71024427 -813.69629679 903.85579194 -813.7426722 938.00136715 C-813.74764669 941.65050417 -813.75263804 945.29964117 -813.75763702 948.94877815 C-813.75886202 949.84719253 -813.76008702 950.7456069 -813.76134913 951.67124596 C-813.77987819 965.17395653 -813.80346333 978.67665207 -813.82958221 992.1793499 C-813.85931179 1007.56257858 -813.88159427 1022.94579872 -813.89438644 1038.32905119 C-813.90108763 1046.16510664 -813.91091812 1054.00112446 -813.93013954 1061.83716011 C-814.05347366 1113.35716809 -812.77318945 1163.66618164 -801.7421875 1214.1875 C-801.49130371 1215.33959961 -801.24041992 1216.49169922 -800.98193359 1217.67871094 C-791.87474317 1258.54686191 -776.5377132 1297.86796416 -757.7421875 1335.1875 C-757.2575 1336.15800293 -756.7728125 1337.12850586 -756.2734375 1338.12841797 C-739.15440913 1372.27528671 -717.22438149 1403.92248794 -692.7421875 1433.1875 C-692.24509277 1433.78369141 -691.74799805 1434.37988281 -691.23583984 1434.99414062 C-679.6202277 1448.87929412 -667.14275031 1461.87453061 -654.3671875 1474.6875 C-653.85103882 1475.20632751 -653.33489014 1475.72515503 -652.80310059 1476.25970459 C-646.96368292 1482.12211574 -641.05849643 1487.83428554 -634.7421875 1493.1875 C-633.6240144 1494.16032664 -632.50679661 1495.1342526 -631.390625 1496.109375 C-623.93716743 1502.56558651 -616.34991291 1508.80487685 -608.52978516 1514.81201172 C-607.35182493 1515.71840723 -606.17693095 1516.62880375 -605.00537109 1517.54345703 C-520.74844614 1583.29063655 -413.66176038 1624.16033958 -247.03613281 1627.73535156 C-175.08329697 1618.72004311 -105.2921402 1596.09367529 -42.7421875 1559.1875 C-41.76443359 1558.61209473 -40.78667969 1558.03668945 -39.77929688 1557.44384766 C-27.02310602 1549.90136446 -14.66453298 1541.990358 -2.7421875 1533.1875 C-1.69611328 1532.41744629 -1.69611328 1532.41744629 -0.62890625 1531.63183594 C14.73879997 1520.28867069 29.59749906 1508.35844638 43.71948242 1495.49023438 C45.31255066 1494.04502714 46.91240684 1492.60723043 48.52197266 1491.18041992 C54.55359438 1485.82604839 60.33724263 1480.2640222 66.02709961 1474.54858398 C67.45118742 1473.11910283 68.88059294 1471.69509489 70.31054688 1470.27148438 C75.50398283 1465.07081019 80.4876588 1459.77671817 85.2578125 1454.1875 C86.27908585 1453.03063797 87.30249065 1451.87565373 88.328125 1450.72265625 C95.85361652 1442.19441647 102.87478395 1433.37520557 109.68896484 1424.27099609 C111.18155136 1422.28877802 112.69400526 1420.32386803 114.21484375 1418.36328125 C134.31991548 1392.29130423 150.51714305 1363.54716988 165.2578125 1334.1875 C165.68545898 1333.34155273 166.11310547 1332.49560547 166.55371094 1331.62402344 C200.21302411 1264.6157512 217.39647798 1187.51483401 217.42358398 1112.70532227 C217.42743105 1110.48842527 217.43145395 1108.27152858 217.43563271 1106.05463219 C217.44588789 1099.1865805 217.44508484 1092.31855489 217.44209424 1085.45049772 C217.44140213 1083.42937877 217.44126118 1081.40826052 217.44130015 1079.38714147 C217.441721 988.15724201 216.42295547 896.92979362 215.56830792 805.70489116 C215.38992895 786.66453448 215.21466899 767.6241517 215.04223633 748.58374023 C215.03085375 747.32693413 215.01947117 746.07012803 215.00774366 744.7752369 C214.96189898 739.71226253 214.91606881 734.64928804 214.87025899 729.58631336 C214.57671382 697.1498776 214.28039248 664.71346642 213.98097229 632.27708435 C213.96586546 630.63970501 213.96586546 630.63970501 213.95045344 628.9692473 C213.84168411 617.19376112 213.73114452 605.41829513 213.61624241 593.64286709 C213.60618152 592.61030551 213.59612062 591.57774393 213.58575485 590.51389261 C213.57571516 589.48352577 213.56567546 588.45315892 213.55533153 587.39156884 C213.54531227 586.36324011 213.53529302 585.33491137 213.52497015 584.27542116 C213.50480281 582.20719717 213.48459833 580.13897354 213.46435627 578.07075027 C213.33907638 565.23859607 213.22479147 552.40641381 213.12445049 539.57403959 C213.0557948 530.80759299 212.98142821 522.0412068 212.90314526 513.27484094 C212.85752282 508.12790424 212.81490865 502.98098707 212.78034604 497.83396327 C212.59613665 459.82106198 212.59613665 459.82106198 208.5078125 422.0625 C208.33862305 421.00305176 208.16943359 419.94360352 207.99511719 418.85205078 C200.38199625 373.30178811 182.25107813 330.19598151 153.2578125 294.1875 C152.83951172 293.66478516 152.42121094 293.14207031 151.99023438 292.60351562 C141.44838614 279.51874827 129.65391493 267.36268163 116.2578125 257.1875 C115.70158203 256.76017578 115.14535156 256.33285156 114.57226562 255.89257812 C105.5169587 248.96099139 96.19811345 242.77234185 86.2578125 237.1875 C85.55205078 236.7867627 84.84628906 236.38602539 84.11914062 235.97314453 C44.7116214 213.78258676 1.10108399 205.38060418 -43.71777344 204.4777832 C-49.20691515 204.36507338 -54.64686828 204.25268132 -60.109375 203.6796875 C-123.41705158 197.343669 -192.11031819 211.85849579 -248.37425232 240.57702637 Z " fill="#CD3827" transform="translate(1513.7421875,831.8125)"/>
<path d="M0 0 C1.7166687 -0.00101212 1.7166687 -0.00101212 3.46801758 -0.00204468 C24.25200866 0.01728809 44.78634114 0.9022357 65.4375 3.25 C66.18416931 3.33485657 66.93083862 3.41971313 67.70013428 3.50714111 C90.85004072 6.17873746 113.68456685 10.24326721 136.4375 15.25 C137.22568115 15.42335876 138.0138623 15.59671753 138.82592773 15.77532959 C159.34072801 20.30820672 179.61593882 25.20327904 199.4375 32.25 C200.32566406 32.56259766 201.21382812 32.87519531 202.12890625 33.19726562 C245.45056748 48.60548534 284.78231738 72.11296879 319.4375 102.25 C320.15035156 102.86230469 320.86320312 103.47460938 321.59765625 104.10546875 C334.16687198 114.97125894 346.74583218 126.29114836 357.51171875 138.98046875 C359.12059967 140.87653329 360.75039487 142.74794683 362.39453125 144.61328125 C369.41053466 152.59253039 376.12522523 160.69677593 382.4375 169.25 C382.9428125 169.93465332 383.448125 170.61930664 383.96875 171.32470703 C400.65277066 194.0195873 415.75223639 217.5835078 428.96240234 242.47607422 C430.41679119 245.21105701 431.88912141 247.93579074 433.36328125 250.66015625 C470.11145903 319.14567408 493.49932549 395.81037998 517.73413086 593.42407227 C517.75340736 595.35734936 517.77287863 597.29062452 517.79252052 599.22389793 C517.84574941 604.64562186 517.89202651 610.06738481 517.93614316 615.48918986 C517.96543356 619.07613532 517.9960195 622.66306823 518.02671623 626.25000191 C518.79094406 716.97107999 518.817317 807.69856078 518.99270618 898.42216831 C519.00001444 902.19495228 519.00736932 905.96773616 519.01474094 909.74052 C519.11036295 958.6825165 519.20199304 1007.62451974 519.28253174 1056.56654358 C519.28464594 1057.85007144 519.28676014 1059.13359931 519.2889384 1060.45602196 C519.30593965 1070.78166414 519.3229262 1081.10730636 519.33980048 1091.43294875 C519.40177562 1129.35213935 519.47611188 1167.27128387 519.56103516 1205.19042969 C519.64908494 1244.51542951 519.71920022 1283.84041242 519.76413059 1323.16548634 C519.76886739 1327.2541333 519.7736744 1331.34278018 519.77853394 1335.431427 C519.77971797 1336.43526701 519.780902 1337.43910703 519.78212192 1338.47336643 C519.80136873 1354.42933185 519.83735535 1370.38521449 519.87993719 1386.34113282 C519.92199096 1402.25020445 519.94522102 1418.15921817 519.94951564 1434.06834555 C519.95228441 1442.57040441 519.96256575 1451.07226411 519.99656105 1459.57426071 C520.13253173 1494.6739766 519.52644346 1529.25133337 514.7301445 1564.10106611 C514.2827089 1567.38665504 513.8705601 1570.6762849 513.45628357 1573.96621704 C512.75487769 1579.51055886 511.96155274 1585.03711297 511.125 1590.5625 C510.98165222 1591.52720215 510.83830444 1592.4919043 510.69061279 1593.48583984 C498.99490134 1671.9786774 479.46404728 1749.74933794 407.4375 1907.25 C406.91285156 1908.16539551 406.38820313 1909.08079102 405.84765625 1910.02392578 C388.60166423 1940.08076536 368.69114662 1968.67790097 346.4375 1995.25 C346.01791016 1995.75450684 345.59832031 1996.25901367 345.16601562 1996.77880859 C338.92858099 2004.27511234 332.50801968 2011.56353404 325.86865234 2018.70556641 C324.37048104 2020.32232377 322.88166059 2021.94730208 321.39453125 2023.57421875 C313.83772871 2031.83083599 306.23313596 2039.95381392 297.72265625 2047.24609375 C295.37318637 2049.30639811 293.08799184 2051.42372419 290.80493164 2053.55688477 C284.55113472 2059.39442838 278.15319952 2064.94324749 271.4375 2070.25 C270.80779297 2070.75225098 270.17808594 2071.25450195 269.52929688 2071.77197266 C251.68953826 2085.98252355 233.24530017 2098.92538965 213.4375 2110.25 C212.55304199 2110.75805176 211.66858398 2111.26610352 210.75732422 2111.78955078 C174.68283948 2132.37865484 174.68283948 2132.37865484 162.99222279 2132.37304783 C162.0770834 2132.37503888 161.161944 2132.37702993 160.21907312 2132.37908131 C159.21227414 2132.37616847 158.20547516 2132.37325563 157.16816711 2132.37025452 C156.09979667 2132.37110894 155.03142623 2132.37196337 153.93068093 2132.37284368 C150.33308364 2132.37449727 146.73553248 2132.36897904 143.13793945 2132.36352539 C140.56610109 2132.36324347 137.99426264 2132.36340135 135.42242432 2132.3639679 C129.87633596 2132.36449269 124.33025936 2132.36135049 118.78417397 2132.35573006 C110.76542883 2132.34760909 102.74668938 2132.34499922 94.72794058 2132.34374207 C81.71860756 2132.34155249 68.7092808 2132.33489494 55.69995117 2132.32543945 C43.06127962 2132.31626291 30.42260976 2132.30918326 17.78393555 2132.30493164 C16.61570903 2132.30453756 16.61570903 2132.30453756 15.42388199 2132.30413551 C11.5168513 2132.30283049 7.60982061 2132.30156678 3.7027899 2132.30032361 C-28.71897796 2132.28995392 -61.14073814 2132.27233815 -93.5625 2132.25 C-91.31918917 2129.93117393 -89.31169082 2128.42377341 -86.44140625 2126.9296875 C-85.60254883 2126.4855249 -84.76369141 2126.0413623 -83.89941406 2125.58374023 C-82.98385742 2125.10235596 -82.06830078 2124.62097168 -81.125 2124.125 C-68.92652813 2117.5950733 -57.14797209 2110.44866051 -45.37010193 2103.19894409 C-42.18231709 2101.2378034 -38.98362595 2099.2978429 -35.765625 2097.38671875 C-10.63495345 2082.4155599 13.41085672 2065.26462516 36.4375 2047.25 C37.58833467 2046.35780585 38.73938232 2045.46588637 39.890625 2044.57421875 C47.34382273 2038.78266022 54.61870048 2032.81467591 61.78125 2026.66796875 C63.48435578 2025.20988526 65.19459274 2023.76053148 66.90625 2022.3125 C74.39620332 2015.95999837 81.67969495 2009.42415607 88.85498047 2002.71923828 C90.38392685 2001.29973823 91.92529276 1999.89547029 93.47265625 1998.49609375 C100.26187526 1992.33880682 106.82117851 1985.97069627 113.3125 1979.5 C114.10930176 1978.70779053 114.90610352 1977.91558105 115.72705078 1977.09936523 C119.92391511 1972.89149591 123.9571942 1968.60377075 127.83349609 1964.09912109 C130.25325926 1961.30957981 132.7865459 1958.63049095 135.3125 1955.9375 C139.79939457 1951.11417577 144.06039013 1946.16844022 148.18359375 1941.02734375 C150.1517408 1938.60212269 152.17052157 1936.23220324 154.21606445 1933.87231445 C162.12258545 1924.71279267 169.26814275 1914.9898249 176.4375 1905.25 C177.00791016 1904.47962402 177.57832031 1903.70924805 178.16601562 1902.91552734 C197.92761797 1876.19324309 215.03620157 1847.68214233 230.4375 1818.25 C231.14036133 1816.91219482 231.14036133 1816.91219482 231.85742188 1815.54736328 C268.10299031 1746.1281026 289.11126468 1669.04336643 296.4375 1591.25 C296.53611328 1590.24090576 296.63472656 1589.23181152 296.73632812 1588.19213867 C297.73421791 1576.4978966 297.57810371 1564.78972724 297.5625 1553.0625 C297.56096448 1551.88452591 297.55942896 1550.70655181 297.5578469 1549.49288154 C297.5289029 1532.71408412 297.42114767 1515.93754252 297.21766663 1499.15994263 C297.20713343 1498.29079765 297.19660023 1497.42165267 297.18574784 1496.52616997 C297.14176975 1492.91148309 297.09750721 1489.2967998 297.05298719 1485.68211956 C296.49069327 1439.91145188 296.2383145 1394.1439823 296.14049705 1348.370229 C296.11860179 1338.19229859 296.09205353 1328.01438123 296.06565888 1317.83646168 C296.00032605 1292.53430448 295.94409811 1267.23212958 295.88968229 1241.9299469 C295.87498034 1235.10128742 295.86001438 1228.27262854 295.84500504 1221.44396973 C295.75399389 1179.99567725 295.66593498 1138.54737926 295.5879364 1097.09906006 C295.58474948 1095.4056625 295.58474948 1095.4056625 295.58149818 1093.6780549 C295.5624478 1083.54440572 295.5434978 1073.41075635 295.52466452 1063.27710676 C295.46865146 1033.1759241 295.40375568 1003.07477716 295.33007812 972.97363281 C295.2574452 943.28854735 295.198853 913.6034791 295.16268253 883.91832542 C295.15896452 880.90553151 295.15519836 877.89273766 295.15139771 874.87994385 C295.15047596 874.14239428 295.14955421 873.40484471 295.14860453 872.64494516 C295.1356531 862.50739937 295.1138371 852.36991018 295.08445168 842.23239916 C294.91768447 784.64662693 295.18850814 727.2658089 298.66753936 669.76936018 C300.79130548 634.33921255 300.21017938 598.62947443 297.4375 563.25 C297.38658203 562.58899292 297.33566406 561.92798584 297.28320312 561.24694824 C290.59186512 475.1118528 269.57094914 387.92099535 212.4375 296.25 C211.91188477 295.50943359 211.38626953 294.76886719 210.84472656 294.00585938 C199.72735659 278.44280979 187.55161033 264.15019005 174.4375 250.25 C173.80328125 249.57324219 173.1690625 248.89648438 172.515625 248.19921875 C168.41719939 243.9544208 163.91921104 240.26461554 159.3203125 236.57421875 C157.44124966 235.05925617 155.58062935 233.52103903 153.7421875 231.95703125 C139.65906455 220.02948834 124.59452458 213.61876819 107.4375 207.25 C106.61024414 206.94288086 105.78298828 206.63576172 104.93066406 206.31933594 C79.69859168 197.11142327 52.32908886 191.06062457 25.4375 190.25 C24.46425781 190.21003906 23.49101563 190.17007813 22.48828125 190.12890625 C-22.13074935 189.15768535 -64.43964491 204.8671636 -96.83203125 235.5546875 C-106.84642822 245.44014374 -116.39565014 256.46955405 -122.5625 269.25 C-126.22519922 267.65564858 -128.93724962 265.35462349 -132 262.8125 C-154.95953892 244.70876397 -184.29945604 236.5101036 -212.5625 231.25 C-213.4582373 231.08274414 -214.35397461 230.91548828 -215.27685547 230.74316406 C-238.94143477 226.49860114 -263.57411088 225.79259428 -287.5625 226.25 C-286.8666915 193.86327729 -274.82491345 158.62936461 -259.63085938 130.25097656 C-258.51092223 128.15339776 -257.42037004 126.04179989 -256.328125 123.9296875 C-247.76801096 107.67329152 -236.97664437 92.9335946 -224.10302734 79.82568359 C-222.48279985 78.16848102 -220.89196048 76.48586306 -219.30078125 74.80078125 C-176.80414121 30.38778214 -114.81805635 10.11462916 -55.1875 2.9375 C-54.17346603 2.81539658 -54.17346603 2.81539658 -53.13894653 2.69082642 C-35.3951806 0.59077842 -17.84823111 0.00950608 0 0 Z " fill="#CD3827" transform="translate(1823.5625,528.75)"/>
<path d="M0 0 C1.28390625 1.20269531 1.28390625 1.20269531 2.59375 2.4296875 C9.47823829 9.07452588 15.27250681 16.36610832 21 24 C21.64219482 24.84304688 21.64219482 24.84304688 22.29736328 25.703125 C45.11524056 55.76407606 58.0229643 91.96024212 65.8125 128.5625 C66.01955566 129.52510742 66.22661133 130.48771484 66.43994141 131.47949219 C67.83281212 138.29716603 68.55704229 145.05829614 69 152 C67.783125 151.97679687 66.56625 151.95359375 65.3125 151.9296875 C13.54086942 151.26407386 -52.91488075 155.79013568 -92.546875 193.78515625 C-94 195 -94 195 -96 195 C-97.59611542 192.56811147 -99.09073149 190.13066009 -100.5625 187.625 C-104.75339109 180.69740286 -109.37841047 174.84349438 -115 169 C-116.15233426 167.65136101 -117.29848109 166.29740342 -118.4375 164.9375 C-144.74441221 134.96683975 -185.62019516 119.4051479 -224.5625 116.25 C-226.70745702 116.14653737 -228.85344055 116.06186825 -231 116 C-231.96679688 115.96003906 -232.93359375 115.92007813 -233.9296875 115.87890625 C-290.0357745 114.64020043 -348.87823244 133.83669042 -389.5234375 172.6484375 C-390.68288333 173.76501094 -391.84177776 174.88215738 -393 176 C-393.94101562 176.89976562 -394.88203125 177.79953125 -395.8515625 178.7265625 C-400.85285807 183.60398697 -405.37559391 188.71112127 -409.73046875 194.171875 C-412.03403323 197.04240974 -414.41829548 199.82985214 -416.8125 202.625 C-432.15103361 221.04546463 -444.81336649 241.85007397 -456 263 C-456.45842285 263.86093262 -456.9168457 264.72186523 -457.38916016 265.60888672 C-490.22230182 327.75296839 -506.65251444 397.38217474 -514.1875 466.875 C-514.26640472 467.58507202 -514.34530945 468.29514404 -514.42660522 469.0267334 C-517.41565014 496.28885032 -518.38556909 523.68562494 -518.3172493 551.09353638 C-518.31239294 553.29861008 -518.31140544 555.50366154 -518.31100464 557.70874023 C-518.29580269 581.06271449 -517.52219895 604.29820557 -515.9650411 627.60596126 C-514.24658364 653.45010115 -513.84944397 679.24349395 -513.88424984 705.13270059 C-513.88895775 709.45457758 -513.88781013 713.77645434 -513.88754845 718.09833336 C-513.88800521 726.57596858 -513.89407993 735.05359079 -513.90222616 743.53122176 C-513.90884412 750.53833194 -513.91318387 757.54544054 -513.91615486 764.55255318 C-513.95555058 855.70460569 -514.15034348 946.85641389 -514.3805805 1038.00815614 C-514.42193143 1054.39776623 -514.46053623 1070.78738099 -514.49731445 1087.17700195 C-514.69954163 1177.09892135 -514.9460828 1267.02045554 -515.42653122 1356.94138151 C-515.46243558 1363.68424544 -515.49628685 1370.42711759 -515.52929497 1377.16999626 C-515.56906858 1385.26806672 -515.61235168 1393.3661097 -515.6601506 1401.46413691 C-515.68428025 1405.5565809 -515.70715521 1409.64901951 -515.72619939 1413.7414906 C-515.86542183 1443.20329548 -515.86542183 1443.20329548 -516.77527523 1456.61057949 C-521.85527854 1533.22993673 -503.10172077 1613.8757522 -438 1765 C-437.101604 1766.56645264 -437.101604 1766.56645264 -436.18505859 1768.16455078 C-411.49071396 1811.03955026 -382.20527761 1851.06578484 -348.52758789 1887.32885742 C-347.38740969 1888.57618358 -346.26118967 1889.83629561 -345.14233398 1891.1027832 C-339.07595398 1897.95192191 -332.70334103 1904.4501707 -326.22485352 1910.90551758 C-324.4332405 1912.6917467 -322.64706945 1914.48329347 -320.86132812 1916.27539062 C-315.59963732 1921.54013883 -310.34046363 1926.74440394 -304.6706543 1931.57446289 C-302.10361355 1933.76486928 -299.65672446 1936.07499512 -297.1875 1938.375 C-292.53961458 1942.6687538 -287.75583652 1946.7353184 -282.82421875 1950.703125 C-280.3378223 1952.72525655 -277.89732485 1954.7914807 -275.46826172 1956.88183594 C-267.97611317 1963.31548603 -260.19270592 1969.32216383 -252.30517578 1975.26123047 C-249.95680973 1977.03257796 -247.61672831 1978.81446888 -245.27734375 1980.59765625 C-225.8262091 1995.37222902 -205.76506077 2009.14028179 -185 2022 C-183.92621094 2022.66644531 -182.85242188 2023.33289062 -181.74609375 2024.01953125 C-165.61974091 2034.0103003 -149.26376447 2043.48181404 -132.60180664 2052.55224609 C-130.02985492 2053.98338748 -127.48310116 2055.41900346 -125 2057 C-125 2057.33 -125 2057.66 -125 2058 C-157.9856145 2058.2295482 -190.97101958 2058.40542896 -223.95725224 2058.51065329 C-227.86318574 2058.52315839 -231.76911767 2058.53610181 -235.67504883 2058.54931641 C-236.45255676 2058.55193951 -237.23006469 2058.55456261 -238.03113347 2058.55726521 C-250.57383612 2058.600623 -263.11607428 2058.67938095 -275.65850259 2058.77152796 C-288.55541616 2058.86547976 -301.45208869 2058.9206791 -314.34933037 2058.94088495 C-322.28976863 2058.95451707 -330.22889348 2058.99735618 -338.16892677 2059.07916467 C-344.2866401 2059.13893568 -350.40337981 2059.1444438 -356.52134514 2059.13107681 C-359.009617 2059.13379998 -361.49794439 2059.1533137 -363.98591614 2059.19205475 C-381.5757004 2059.45222712 -394.43037972 2056.11729846 -410 2048 C-411.87988685 2047.05992634 -413.76126031 2046.12281934 -415.6441431 2045.18876076 C-440.35776709 2032.89923472 -463.43919393 2017.17805013 -485 2000 C-485.89332031 1999.2884375 -486.78664063 1998.576875 -487.70703125 1997.84375 C-508.68923336 1980.88595269 -529.89789267 1962.59517441 -547.33984375 1941.94140625 C-549.45702462 1939.46555003 -551.66781829 1937.08338732 -553.875 1934.6875 C-558.79577302 1929.2850248 -563.4270049 1923.69762419 -568 1918 C-568.92389449 1916.86801214 -569.8484029 1915.73652513 -570.7734375 1914.60546875 C-600.45028742 1878.14688895 -625.06439171 1837.72059066 -646.11260986 1795.76831055 C-646.96729783 1794.06516592 -647.82513948 1792.36360503 -648.68310547 1790.66210938 C-689.70553182 1708.88835711 -713.81745233 1618.82933033 -734.73828125 1478.72265625 C-734.83694489 1477.93442474 -734.93560852 1477.14619324 -735.03726196 1476.33407593 C-735.24153849 1474.65599241 -735.43547458 1472.97662903 -735.62096977 1471.29636574 C-735.88536819 1468.99693466 -736.17869896 1466.70072589 -736.49407196 1464.4077301 C-738.70552949 1447.08455534 -738.27846659 1429.61423929 -738.2467974 1412.1862651 C-738.24012034 1407.28427109 -738.2451433 1402.38228585 -738.24859524 1397.48029041 C-738.25358991 1387.78854287 -738.24785501 1378.09682935 -738.23868127 1368.40508603 C-738.22818206 1356.81193173 -738.229037 1345.21878513 -738.23006731 1333.62562712 C-738.23163707 1310.97089144 -738.22124115 1288.31617293 -738.20556229 1265.66144331 C-738.1918636 1245.8674456 -738.18223917 1226.07345099 -738.17623901 1206.27944946 C-738.1541565 1135.42477407 -738.1062035 1064.57014002 -737.60119082 744.41479404 C-737.57780877 733.46982249 -737.55489694 722.52485024 -737.5328331 711.57987595 C-737.48129789 686.05142412 -737.42711012 660.52298372 -737.36342239 634.99455893 C-737.35802834 632.83061894 -737.35263688 630.66667895 -737.34724808 628.50273895 C-737.34460674 627.44292601 -737.34196541 626.38311306 -737.33924404 625.29118457 C-737.32130844 618.01026043 -737.30557181 610.72933373 -737.29087448 603.4484024 C-737.2732446 594.73364459 -737.25234971 586.01890192 -737.22731278 577.30416212 C-737.21483467 572.93589089 -737.20363392 568.56762912 -737.19658411 564.19934547 C-737.16763568 546.91424893 -737.00921082 529.64340708 -736.52330017 512.36445618 C-736.49165664 511.23653129 -736.49165664 511.23653129 -736.45937384 510.08582004 C-736.13090715 498.62218543 -735.64109511 487.18422906 -734.75 475.75 C-734.68753082 474.9219989 -734.62506165 474.0939978 -734.56069946 473.24090576 C-728.30594054 391.20752201 -709.82699591 309.94901206 -621 123 C-620.52884766 122.28295898 -620.05769531 121.56591797 -619.57226562 120.82714844 C-608.49882889 104.08766852 -596.20773605 88.10732584 -583 73 C-582.39285156 72.29359375 -581.78570313 71.5871875 -581.16015625 70.859375 C-579.45831155 68.88923949 -577.73464046 66.94132102 -576 65 C-575.24976563 64.15695312 -574.49953125 63.31390625 -573.7265625 62.4453125 C-568.08495703 56.19380374 -562.25621593 50.1525962 -556.3125 44.1875 C-555.2618335 43.12994507 -555.2618335 43.12994507 -554.18994141 42.05102539 C-549.62253473 37.49704279 -544.89518221 33.19762683 -540 29 C-539.02417969 28.14277344 -538.04835938 27.28554688 -537.04296875 26.40234375 C-463.11552433 -37.41190717 -369.04282344 -61.56069383 -274 -72 C-272.7836084 -72.13567383 -271.5672168 -72.27134766 -270.31396484 -72.41113281 C-175.66218778 -82.44289303 -71.35317314 -67.32517143 0 0 Z " fill="#CD3827" transform="translate(811,603)"/>
<path d="M0 0 C1.56795754 0.00028256 3.13591522 0.0001228 4.70387268 -0.0004425 C8.93249626 -0.00072781 13.1610911 0.00512561 17.38970804 0.01213145 C21.81928261 0.01840959 26.24885794 0.01897231 30.67843628 0.02015686 C39.05398582 0.02325707 47.42952222 0.03145272 55.80506599 0.04150635 C65.34562242 0.05270827 74.88617951 0.0581882 84.42674088 0.06320179 C104.0408489 0.0736365 123.6549451 0.09121045 143.26904297 0.11352539 C143.33785733 45.53281951 143.39064677 90.95210806 143.42223896 136.37144413 C143.42599064 141.745595 143.42987365 147.11974577 143.43383789 152.49389648 C143.43462482 153.56369773 143.43541175 154.63349898 143.43622253 155.73571844 C143.44924148 173.00966153 143.47287577 190.28357437 143.50050136 207.55749957 C143.52865364 225.31011805 143.54523989 243.06272079 143.55130845 260.81536067 C143.55540462 271.75096307 143.56829514 282.68647992 143.59279237 293.62205596 C143.60877113 301.14258474 143.61341619 308.66306994 143.6095471 316.18361442 C143.60764423 320.50881302 143.61035438 324.8338632 143.62665939 329.15903473 C143.71177642 352.91939837 143.0666335 376.48396705 137.58154297 399.73852539 C137.32735596 400.84204346 137.07316895 401.94556152 136.8112793 403.08251953 C132.32420353 421.88364904 125.77213701 439.77173535 117.26904297 457.11352539 C116.87990723 457.91097168 116.49077148 458.70841797 116.08984375 459.5300293 C106.15676869 479.66068162 93.56661224 498.32859879 78.34716797 514.85180664 C76.46175362 516.90378955 74.64134264 518.99504493 72.83154297 521.11352539 C66.15850824 528.73765933 58.95885826 535.5885153 51.03857422 541.90258789 C49.22385296 543.35129344 47.42849071 544.82466527 45.65576172 546.32446289 C0.18323248 584.72348758 -59.56423145 602.73254788 -118.35595703 603.42993164 C-119.8770683 603.45072975 -121.39817623 603.47177379 -122.91928101 603.49304199 C-127.00761703 603.5487073 -131.09600484 603.59824066 -135.18444061 603.64595413 C-137.74059187 603.67613917 -140.29671808 603.70796828 -142.85284424 603.74020386 C-162.90312966 603.99079865 -182.95251154 604.15070696 -203.00439453 604.17602539 C-203.82522144 604.17706268 -204.64604836 604.17809998 -205.49174881 604.1791687 C-222.90481962 604.19694086 -240.31793361 604.14983021 -257.73095703 604.11352539 C-257.73026569 604.94934477 -257.73026569 604.94934477 -257.72956038 605.8020494 C-257.66843785 681.18232275 -257.72604768 756.56166359 -257.94970703 831.94165039 C-257.95244361 832.8654499 -257.9551802 833.78924942 -257.95799971 834.74104285 C-258.02764592 858.2213015 -258.101239 881.70154716 -258.17633915 905.18178892 C-258.21978388 918.77703273 -258.26209968 932.37227975 -258.30371094 945.9675293 C-258.30669793 946.94333951 -258.30968493 947.91914972 -258.31276244 948.92452994 C-258.32776123 953.82624123 -258.34274231 958.72795257 -258.35771465 963.62966394 C-258.47939201 1003.45762648 -258.60406648 1043.28557914 -258.73095703 1083.11352539 C-260.7850682 1082.96990983 -262.83888764 1082.82211842 -264.89257812 1082.67260742 C-266.03632904 1082.59076202 -267.18007996 1082.50891663 -268.35848999 1082.42459106 C-273.12334628 1081.98509582 -277.70302939 1081.0809406 -282.35595703 1079.98852539 C-283.29689209 1079.76825684 -284.23782715 1079.54798828 -285.20727539 1079.32104492 C-314.23610948 1072.24512927 -340.12043598 1057.64171651 -361.73095703 1037.11352539 C-363.05888044 1035.98214473 -364.39187292 1034.85667409 -365.73095703 1033.73852539 C-412.34166901 992.89506175 -436.50234669 925.68054024 -451.41845703 867.55102539 C-451.5930545 866.88669495 -451.76765198 866.2223645 -451.94754028 865.53790283 C-459.11965827 838.04570628 -462.65917235 810.82108443 -462.51189454 782.47426561 C-462.49789629 778.44481356 -462.51954665 774.41549716 -462.53610897 770.38607597 C-462.56032192 763.36030157 -462.56298409 756.33479372 -462.55051613 749.30899239 C-462.53203391 738.84555882 -462.54834184 728.38236755 -462.57103179 717.91895237 C-462.60831014 700.26970064 -462.61785865 682.62053795 -462.6111145 664.97125244 C-462.60449609 647.49152757 -462.61033011 630.01187874 -462.6322937 612.53216553 C-462.63365542 611.44046397 -462.63501713 610.34876242 -462.63642011 609.223979 C-462.64198972 604.78949541 -462.64764388 600.35501193 -462.65340798 595.92052859 C-462.71385443 549.34626553 -462.72958221 502.77205454 -462.72955182 456.19775718 C-462.72955025 453.78344675 -462.72955031 451.36913631 -462.72955198 448.95482588 C-462.72955281 446.5343051 -462.72954781 444.11378431 -462.729537 441.69326353 C-462.72954726 414.62960144 -462.73943182 387.56594533 -462.75045133 360.50228582 C-462.75494956 349.36790274 -462.75917209 338.23351955 -462.7633667 327.09913635 C-462.76382683 325.87815655 -462.76428696 324.65717675 -462.76476103 323.39919756 C-462.80456481 217.03615987 -462.78744613 110.67316791 -462.73095703 2.11352539 C-461.71231441 2.12535953 -460.6936718 2.13719366 -459.64416122 2.14938641 C-449.85129524 2.2630723 -440.05842159 2.37607848 -430.26554084 2.48848552 C-425.23584101 2.54623871 -420.20614378 2.60419889 -415.17645264 2.66270447 C-387.67807066 2.98236487 -360.17953275 3.28361131 -332.679739 3.45296288 C-331.97686351 3.45747695 -331.27398802 3.46199103 -330.54981327 3.4666419 C-328.62620617 3.47886127 -326.70259428 3.49032004 -324.77898216 3.50172234 C-292.63055086 3.84377771 -269.69300843 15.54173879 -242.35595703 31.36352539 C-221.48722701 43.33820143 -199.17297284 53.20680545 -174.73095703 54.11352539 C-173.70486328 54.15348633 -172.67876953 54.19344727 -171.62158203 54.23461914 C-139.55265776 54.85132922 -112.81479297 43.73614815 -86.13110352 26.79199219 C-58.43011389 9.22146366 -33.13491537 -0.08416426 0 0 Z M-257.73095703 212.11352539 C-257.73095703 275.80352539 -257.73095703 339.49352539 -257.73095703 405.11352539 C-240.24095703 405.17540039 -222.75095703 405.23727539 -204.73095703 405.30102539 C-199.23826172 405.3283374 -193.74556641 405.35564941 -188.08642578 405.38378906 C-183.09973424 405.39383137 -183.09973424 405.39383137 -178.11303711 405.39985657 C-175.91705493 405.40441929 -173.72107958 405.41487746 -171.52514648 405.43025208 C-142.18406265 405.62514995 -115.36289838 399.96060047 -92.73095703 380.11352539 C-91.99748047 379.52313477 -91.26400391 378.93274414 -90.50830078 378.32446289 C-69.52555602 360.93135877 -60.08763199 336.25357513 -55.73095703 310.11352539 C-55.73095703 277.77352539 -55.73095703 245.43352539 -55.73095703 212.11352539 C-122.39095703 212.11352539 -189.05095703 212.11352539 -257.73095703 212.11352539 Z " fill="#CD3827" transform="translate(1366.73095703125,1226.886474609375)"/>
<path d="M0 0 C11.93738464 -0.07022491 23.8747183 -0.12317264 35.81226921 -0.15543652 C41.35832001 -0.17093949 46.90422715 -0.19188805 52.45019531 -0.22631836 C100.37664382 -0.51570993 100.37664382 -0.51570993 121 3 C121.73236877 3.1184024 122.46473755 3.23680481 123.21929932 3.35879517 C127.38285852 4.03931665 131.50388034 4.84971482 135.625 5.75 C136.82535889 6.00676514 138.02571777 6.26353027 139.26245117 6.52807617 C184.57506646 16.48409585 226.70827368 35.42045189 264 63 C264.60457031 63.44617676 265.20914062 63.89235352 265.83203125 64.35205078 C272.32209743 69.17103285 278.54999571 74.20870339 284.48828125 79.69921875 C286.53152557 81.57086868 288.60372774 83.38416488 290.703125 85.19140625 C302.41834247 95.41845599 313.5424577 106.64804417 323 119 C323.79535156 119.96679688 324.59070312 120.93359375 325.41015625 121.9296875 C338.77536269 138.23488876 350.41950802 156.22746484 360 175 C360.7108374 176.38493652 360.7108374 176.38493652 361.43603516 177.79785156 C380.78651792 215.85276565 391.97395501 256.557208 396 299 C396.10803955 300.13501953 396.10803955 300.13501953 396.21826172 301.29296875 C397.09965294 311.26180739 397.04610648 321.2525662 397.03100586 331.25244141 C397.02983219 332.73009551 397.02870186 334.20774965 397.02760983 335.68540382 C397.00487961 358.63149954 396.90516241 381.57752706 396.81640625 404.5234375 C396.80652146 407.09403101 396.79663823 409.66462453 396.78675652 412.23521805 C396.74531472 422.9868283 396.70351566 433.73843702 396.66066074 444.49004173 C396.64966404 447.25052259 396.63867135 450.01100347 396.62768555 452.77148438 C396.62495724 453.45694264 396.62222894 454.1424009 396.61941796 454.84863062 C396.57854271 465.13573391 396.53993883 475.42284394 396.50268555 485.70996094 C396.12002199 591.12874607 396.12002199 591.12874607 395.55786014 640.56989717 C395.52768223 643.25890182 395.49902538 645.94791903 395.47070503 648.63694382 C395.4268908 652.74980442 395.37809381 656.86257427 395.32490849 660.97532415 C395.30641592 662.4465962 395.28932224 663.91788667 395.27380061 665.38919306 C395.05322223 685.84798262 395.05322223 685.84798262 390.2734375 690.55078125 C389.49653564 691.32639404 388.71963379 692.10200684 387.91918945 692.90112305 C387.07960693 693.69687744 386.24002441 694.49263184 385.375 695.3125 C384.08372192 696.56317261 384.08372192 696.56317261 382.76635742 697.83911133 C361.02803762 718.54715994 334.79498802 731.88028382 304.140625 731.18359375 C274.58537498 729.45586147 245.10864914 717.77850867 222.3748436 698.69093609 C220.17080528 696.87577311 218.06139398 695.41120828 215.61911392 693.87915516 C211.19423371 690.98711497 207.02141527 687.9637838 205.24338055 682.80455947 C203.98242697 676.26588192 204.19642125 669.62328099 204.26464844 662.99291992 C204.2403266 660.75641293 204.21031868 658.51996171 204.1750946 656.28359985 C204.09544426 650.20573344 204.09530201 644.13014556 204.10902309 638.05187011 C204.10961759 631.59612976 204.03589661 625.14121593 203.97052002 618.68586731 C203.86977348 607.76651173 203.81378148 596.84776779 203.79248047 585.92797852 C203.77084058 574.90164428 203.72540756 563.87591019 203.64306641 552.84985352 C203.63807552 552.18072484 203.63308463 551.51159617 203.6279425 550.82219087 C203.60263766 547.45379869 203.57677313 544.08541109 203.55060482 540.71702552 C203.38650294 519.54926041 203.26019965 498.38145461 203.16729832 477.21325135 C203.05119557 450.839753 202.85475538 424.46836765 202.54646397 398.09640718 C202.51645054 395.49727207 202.48775518 392.89812588 202.45949554 390.29897118 C202.27876349 373.81878865 202.03099199 357.34115411 201.60615492 340.86525953 C201.56685277 339.33574131 201.52881774 337.80618985 201.49222994 336.27660429 C200.11366817 279.66105551 183.5085875 223.34623887 146 180 C145.24847656 179.12601563 144.49695312 178.25203125 143.72265625 177.3515625 C139.13016355 172.1231862 134.39631775 167.3890051 129 163 C128.50371094 162.59136719 128.00742188 162.18273437 127.49609375 161.76171875 C119.39194426 155.11363394 111.12195692 149.20948421 102 144 C101.14849365 143.5035498 101.14849365 143.5035498 100.27978516 142.99707031 C74.35015305 127.96435711 45.47041755 121.84325511 15.86328125 119.91796875 C14.51255411 119.82788242 13.16184592 119.73751159 11.81115723 119.64685059 C8.54094598 119.42844693 5.27057357 119.21289694 2 119 C1.73420701 108.50470221 1.47319809 98.0092961 1.21769714 87.51374245 C1.09881845 82.636057 0.9785129 77.758417 0.85449219 72.88085938 C0.23783434 48.58170464 -0.15986318 24.30750359 0 0 Z " fill="#34672C" transform="translate(904,63)"/>
<path d="M0 0 C0.33 0 0.66 0 1 0 C1.88710898 27.76651832 2.26535526 55.5268968 2.50525212 83.30577016 C2.55632907 89.14189186 2.6111057 94.97797907 2.66539001 100.81407166 C2.75575719 110.58379259 2.84371611 120.3535326 2.92993164 130.12329102 C3.04008835 142.60489502 3.15416921 155.08645994 3.26950932 167.56801701 C3.36960966 178.40210614 3.46808877 189.23620993 3.56622386 200.07031703 C3.59741299 203.50834121 3.62878672 206.94636368 3.66017342 210.38438606 C3.70953659 215.80451358 3.75788478 221.22464933 3.80549049 226.64479256 C3.82292261 228.61503366 3.84064627 230.58527222 3.85870743 232.55550766 C3.91492517 238.70362764 3.96287719 244.85173457 4 251 C4.00581235 251.89985335 4.01162469 252.7997067 4.01761317 253.72682834 C4.0332487 256.42570986 4.04347262 259.12455857 4.05198669 261.82347107 C4.05692109 262.62708511 4.06185549 263.43069916 4.06693941 264.25866514 C4.07947239 271.89634249 3.35828473 279.36092314 2.375 286.9375 C2.28730347 287.63111633 2.19960693 288.32473267 2.10925293 289.03936768 C-7.35765961 363.39907971 -40.35860505 438.15501093 -100.19921875 485.74609375 C-102.00484923 487.1991604 -103.78147951 488.6893982 -105.51953125 490.22265625 C-120.88153097 503.69533243 -138.82447363 514.73521457 -157 524 C-158.32765381 524.67820801 -158.32765381 524.67820801 -159.68212891 525.37011719 C-192.57397677 542 -192.57397677 542 -202 542 C-202 400.43 -202 258.86 -202 113 C-195.07 113.495 -195.07 113.495 -188 114 C-139.54819055 115.67612857 -92.38549112 99.45192451 -56 67 C-55.05511719 66.16339844 -54.11023437 65.32679687 -53.13671875 64.46484375 C-41.94228878 54.43368489 -31.11117071 43.98874226 -22 32 C-21.46729492 31.30068359 -20.93458984 30.60136719 -20.38574219 29.88085938 C-13.58476441 20.9055215 -7.03814566 11.90539651 -1.35546875 2.17578125 C-0.90816406 1.45777344 -0.46085937 0.73976563 0 0 Z " fill="#CD3828" transform="translate(1508,1769)"/>
<path d="M0 0 C0.8049012 0.00020016 1.6098024 0.00040031 2.43909454 0.00060654 C7.11933348 0.00291585 11.79944177 0.013815 16.47962761 0.03648186 C17.91670115 0.04330699 19.35378132 0.04887696 20.79086494 0.05307198 C28.52290294 0.07980662 36.13735776 0.2686981 43.8125 1.25 C44.89514773 7.52970413 45.06029587 13.74022597 45.20141602 20.10327148 C45.24552612 21.87112755 45.24552612 21.87112755 45.29052734 23.67469788 C45.37003805 26.8994051 45.44581528 30.12417242 45.51968122 33.34901309 C45.59853233 36.76138757 45.68154945 40.17366129 45.76390076 43.58595276 C45.90213063 49.34165846 46.03690331 55.09743752 46.16967773 60.85327148 C46.32115086 67.41770681 46.47819241 73.98199009 46.63837105 80.54621834 C46.79409642 86.93458492 46.94536457 93.32305063 47.0948925 99.71156502 C47.15766156 102.38971889 47.22213148 105.06781463 47.28747749 107.74590874 C47.76036584 127.25185913 47.89084731 146.73976083 47.8125 166.25 C47.18937581 166.26205097 46.56625162 166.27410194 45.92424488 166.2865181 C45.10271773 166.30276608 44.28119059 166.31901405 43.43476868 166.33575439 C42.21584411 166.35963163 42.21584411 166.35963163 40.97229481 166.38399124 C3.97462938 167.22738728 -33.05497442 173.74244949 -69.66162109 178.77124023 C-70.446443 178.87891661 -71.23126492 178.98659298 -72.03986931 179.09753227 C-75.73642159 179.60478823 -79.43273287 180.11364847 -83.12850952 180.62652588 C-86.45464107 181.08756055 -89.78339589 181.52672654 -93.11271667 181.96416855 C-95.34993848 182.27237825 -97.57999207 182.61741606 -99.81164551 182.96353149 C-101.34342268 183.18370526 -102.87528117 183.40331419 -104.40722656 183.62231445 C-105.4696438 183.7998024 -105.4696438 183.7998024 -106.55352402 183.98087597 C-110.09207346 184.46259284 -111.83464841 184.4663904 -114.92059326 182.57389832 C-116.9375 180.5 -116.9375 180.5 -118.98828125 177.9453125 C-156.98727294 131.37461221 -243.36785331 120.8205252 -298.1875 115.25 C-316.48778597 113.50361163 -334.8169243 112.76512158 -353.1875 112.25 C-338.30150107 78.11469936 -279.47652825 52.24976996 -247.46484375 39.51171875 C-240.75833538 36.93615932 -233.99147971 34.55424488 -227.1875 32.25 C-225.50744873 31.67838135 -225.50744873 31.67838135 -223.79345703 31.09521484 C-178.24074144 15.8067516 -130.88421645 7.98207731 -83.1875 3.25 C-82.3406665 3.16536499 -81.49383301 3.08072998 -80.62133789 2.99353027 C-53.7700183 0.35252325 -26.95660565 -0.01472433 0 0 Z " fill="#CD3928" transform="translate(964.1875,343.75)"/>
<path d="M0 0 C45.7671959 0 89.79205238 7.33533565 133.18066406 22.04443359 C135.81121638 22.93601497 138.447603 23.80756705 141.0859375 24.67578125 C163.80359754 32.26576193 185.58913637 42.32396446 207 53 C207.97565918 53.48581543 208.95131836 53.97163086 209.95654297 54.47216797 C221.15968107 60.08969056 232.08199203 66.08525454 242.8125 72.5625 C243.8039502 73.15853027 244.79540039 73.75456055 245.81689453 74.36865234 C246.72938965 74.92891113 247.64188477 75.48916992 248.58203125 76.06640625 C249.38874268 76.56084229 250.1954541 77.05527832 251.02661133 77.56469727 C253 79 253 79 255 82 C254.37996094 82.41507812 253.75992187 82.83015625 253.12109375 83.2578125 C247.47121872 87.18887548 242.31991557 91.38061678 237.31640625 96.09375 C236.67775635 96.69289215 236.03910645 97.2920343 235.38110352 97.90933228 C227.443731 105.40451563 219.7266299 113.12340994 212.01757812 120.85205078 C209.4790115 123.39603328 206.9350667 125.93455128 204.390625 128.47265625 C202.74967888 130.1142624 201.10904256 131.75617831 199.46875 133.3984375 C198.3467218 134.51742935 198.3467218 134.51742935 197.20202637 135.6590271 C193.13666492 139.74239062 189.23870548 143.91340598 185.48986816 148.28994751 C183.43847678 150.6445095 181.23664935 152.82220984 179 155 C175.37118478 158.58489612 171.9593714 162.262936 168.64453125 166.13671875 C166.99601248 168.00451793 165.27696419 169.75455624 163.5 171.5 C161.20673964 173.75797943 159.03571972 176.05996504 156.9375 178.5 C153.47614591 182.51361507 149.87297981 186.38299785 146.25 190.25 C140.12165741 196.79323171 134.03560993 203.3710275 128 210 C127.15050781 210.93199219 126.30101562 211.86398437 125.42578125 212.82421875 C124.62527344 213.70722656 123.82476563 214.59023438 123 215.5 C121.948125 216.66015625 121.948125 216.66015625 120.875 217.84375 C119.14489605 219.83336954 117.55018297 221.86849842 116 224 C112.63051546 223.35828491 110.27863038 222.06192744 107.40234375 220.21875 C102.29268696 217.09095863 97.12779306 214.69844056 91.5625 212.5 C90.52101807 212.08693604 89.47953613 211.67387207 88.40649414 211.24829102 C61.05975541 200.67571043 32.78866156 192.29226061 4.48217773 184.7175293 C2 184 2 184 0 183 C0 122.61 0 62.22 0 0 Z " fill="#CD3928" transform="translate(1399,340)"/>
<path d="M0 0 C0.66 0.33 1.32 0.66 2 1 C1.67 1.33 1.34 1.66 1 2 C85.15 2.33 169.3 2.66 256 3 C256 3.33 256 3.66 256 4 C169.87 4 83.74 4 -5 4 C-2 1 -2 1 0 0 Z " fill="#E38E84" transform="translate(1735,2657)"/>
<path d="M0 0 C0.66 0.33 1.32 0.66 2 1 C-10.54 13.54 -23.08 26.08 -36 39 C-36.66 38.67 -37.32 38.34 -38 38 C-31.25880439 30.53143068 -24.35524357 23.24902601 -17.25 16.125 C-16.55398682 15.4244751 -15.85797363 14.7239502 -15.14086914 14.00219727 C-11.07828599 9.95115418 -6.90697104 6.08515795 -2.55761719 2.34326172 C-1.68199569 1.58814111 -0.81759407 0.81759407 0 0 Z " fill="#DD7A6F" transform="translate(272,631)"/>
</svg>
